<?xml version="1.0" encoding="UTF-8" standalone="no"?>
<!DOCTYPE svg PUBLIC "-//W3C//DTD SVG 1.1//EN" "http://www.w3.org/Graphics/SVG/1.1/DTD/svg11.dtd">
<svg version="1.1" xmlns="http://www.w3.org/2000/svg" xmlns:xlink="http://www.w3.org/1999/xlink" preserveAspectRatio="xMidYMid meet" viewBox="224 173 194 189" width="20" height="20">
    <defs>
        <path d="M224.36 173.22L422.84 173.22L422.84 362.33L224.36 362.33L224.36 173.22Z" id="fdszIVNTA"></path>
        <path d="M271.74 203.31C271.74 209.27 266.73 214.11 260.57 214.11C254.41 214.11 249.41 209.27 249.41 203.31C249.41 197.34 254.41 192.5 260.57 192.5C266.73 192.5 271.74 197.34 271.74 203.31Z" id="dnwMhTytD"></path>
        <path d="M312.88 204.04C312.48 209.99 307.17 214.49 301.02 214.09C294.88 213.68 290.2 208.52 290.6 202.57C290.99 196.62 296.3 192.12 302.45 192.52C308.6 192.93 313.27 198.09 312.88 204.04Z" id="b6yD2DSm0m"></path>
        <path d="M354.07 203.31C354.07 209.27 349.06 214.11 342.9 214.11C336.74 214.11 331.74 209.27 331.74 203.31C331.74 197.34 336.74 192.5 342.9 192.5C349.06 192.5 354.07 197.34 354.07 203.31Z" id="f16ZOePskM"></path>
        <path d="M399.41 203.31C399.41 209.27 394.4 214.11 388.24 214.11C382.08 214.11 377.08 209.27 377.08 203.31C377.08 197.34 382.08 192.5 388.24 192.5C394.4 192.5 399.41 197.34 399.41 203.31Z" id="b15aW8Ywt0"></path>
        <path d="M312.67 245.28C313.87 251.12 309.95 256.88 303.92 258.12C297.89 259.37 292.01 255.64 290.8 249.8C289.59 243.96 293.51 238.21 299.54 236.96C305.58 235.71 311.46 239.44 312.67 245.28Z" id="aHUv0U0bM"></path>
        <path d="M271.74 246.91C271.74 252.87 266.73 257.71 260.57 257.71C254.41 257.71 249.41 252.87 249.41 246.91C249.41 240.94 254.41 236.1 260.57 236.1C266.73 236.1 271.74 240.94 271.74 246.91Z" id="a4os821vMQ"></path>
        <path d="M354.07 247.53C354.07 253.49 349.06 258.33 342.9 258.33C336.74 258.33 331.74 253.49 331.74 247.53C331.74 241.56 336.74 236.72 342.9 236.72C349.06 236.72 354.07 241.56 354.07 247.53Z" id="aY1u9eTEl"></path>
        <path d="M399.41 250.25C399.41 256.22 394.4 261.06 388.24 261.06C382.08 261.06 377.08 256.22 377.08 250.25C377.08 244.29 382.08 239.45 388.24 239.45C394.4 239.45 399.41 244.29 399.41 250.25Z" id="bvRNTWTd"></path>
        <path d="M271.74 289.07C271.74 295.03 266.73 299.87 260.57 299.87C254.41 299.87 249.41 295.03 249.41 289.07C249.41 283.1 254.41 278.26 260.57 278.26C266.73 278.26 271.74 283.1 271.74 289.07Z" id="cSqDYm6XR"></path>
        <path d="M312.91 289.07C312.91 295.03 307.9 299.87 301.74 299.87C295.58 299.87 290.58 295.03 290.58 289.07C290.58 283.1 295.58 278.26 301.74 278.26C307.9 278.26 312.91 283.1 312.91 289.07Z" id="b7xEePnHZs"></path>
        <path d="M354.07 289.07C354.07 295.03 349.06 299.87 342.9 299.87C336.74 299.87 331.74 295.03 331.74 289.07C331.74 283.1 336.74 278.26 342.9 278.26C349.06 278.26 354.07 283.1 354.07 289.07Z" id="giFtpHR9f"></path>
        <path d="M399.41 289.07C399.41 295.03 394.4 299.87 388.24 299.87C382.08 299.87 377.08 295.03 377.08 289.07C377.08 283.1 382.08 278.26 388.24 278.26C394.4 278.26 399.41 283.1 399.41 289.07Z" id="c2EEVkrgzZ"></path>
        <path d="M271.74 330.81C271.74 336.77 266.73 341.61 260.57 341.61C254.41 341.61 249.41 336.77 249.41 330.81C249.41 324.84 254.41 320 260.57 320C266.73 320 271.74 324.84 271.74 330.81Z" id="g1uV26IDUu"></path>
        <path d="M312.9 330.81C312.9 336.77 307.89 341.61 301.73 341.61C295.57 341.61 290.57 336.77 290.57 330.81C290.57 324.84 295.57 320 301.73 320C307.89 320 312.9 324.84 312.9 330.81Z" id="i2ajBBcP0d"></path>
        <path d="M354.07 330.81C354.07 336.77 349.06 341.61 342.9 341.61C336.74 341.61 331.74 336.77 331.74 330.81C331.74 324.84 336.74 320 342.9 320C349.06 320 354.07 324.84 354.07 330.81Z" id="b10gHCkPWu"></path>
        <path d="M399.41 330.81C399.41 336.77 394.4 341.61 388.24 341.61C382.08 341.61 377.08 336.77 377.08 330.81C377.08 324.84 382.08 320 388.24 320C394.4 320 399.41 324.84 399.41 330.81Z" id="a1eeAZR9u6"></path>
    </defs>
    <g>
        <g>
            <g><use xlink:href="#fdszIVNTA" opacity="1" fill="#333" fill-opacity="1"></use></g>
            <g><use xlink:href="#dnwMhTytD" opacity="1" fill="#f47992" fill-opacity="1"></use></g>
            <g><use xlink:href="#b6yD2DSm0m" opacity="1" fill="#f47992" fill-opacity="1"></use></g>
            <g><use xlink:href="#f16ZOePskM" opacity="1" fill="#f47992" fill-opacity="1"></use></g>
            <g><use xlink:href="#b15aW8Ywt0" opacity="1" fill="#f47992" fill-opacity="1"></use></g>
            <g><use xlink:href="#aHUv0U0bM" opacity="1" fill="#f47992" fill-opacity="1"></use></g>
            <g><use xlink:href="#a4os821vMQ" opacity="1" fill="#f47992" fill-opacity="1"></use></g>
            <g><use xlink:href="#aY1u9eTEl" opacity="1" fill="#f47992" fill-opacity="1"></use></g>
            <g><use xlink:href="#bvRNTWTd" opacity="1" fill="#f47992" fill-opacity="1"></use></g>
            <g><use xlink:href="#cSqDYm6XR" opacity="1" fill="#f47992" fill-opacity="1"></use></g>
            <g><use xlink:href="#b7xEePnHZs" opacity="1" fill="#f47992" fill-opacity="1"></use></g>
            <g><use xlink:href="#giFtpHR9f" opacity="1" fill="#f47992" fill-opacity="1"></use></g>
            <g><use xlink:href="#c2EEVkrgzZ" opacity="1" fill="#f47992" fill-opacity="1"></use></g>
            <g><use xlink:href="#g1uV26IDUu" opacity="1" fill="#f47992" fill-opacity="1"></use></g>
            <g><use xlink:href="#i2ajBBcP0d" opacity="1" fill="#f47992" fill-opacity="1"></use></g>
            <g><use xlink:href="#b10gHCkPWu" opacity="1" fill="#f47992" fill-opacity="1"></use></g>
            <g><use xlink:href="#a1eeAZR9u6" opacity="1" fill="#f47992" fill-opacity="1"></use></g>
        </g>
    </g>
</svg>