<?xml version="1.0" encoding="UTF-8" standalone="no"?>
<!DOCTYPE svg PUBLIC "-//W3C//DTD SVG 1.1//EN" "http://www.w3.org/Graphics/SVG/1.1/DTD/svg11.dtd">
<svg version="1.1" xmlns="http://www.w3.org/2000/svg" xmlns:xlink="http://www.w3.org/1999/xlink"
    preserveAspectRatio="xMidYMid meet" viewBox="340 50 230 230" width="20" height="20">
    <defs>
        <path d="M570 50L570 280L340 280L340 50L570 50Z" id="b2XDdTap0U"></path>
        <path
            d="M431.73 256.14C426.22 256.14 421.74 251.66 421.74 246.15C421.74 240.62 426.22 236.14 431.73 236.14C437.25 236.14 441.74 240.62 441.74 246.15C441.74 251.66 437.25 256.14 431.73 256.14Z"
            id="d1c7jCuLmy"></path>
        <path
            d="M523.77 156.02C518.25 156.02 513.77 151.54 513.77 146.02C513.77 140.5 518.25 136.02 523.77 136.02C529.28 136.02 533.77 140.5 533.77 146.02C533.77 151.54 529.28 156.02 523.77 156.02Z"
            id="e40bbz9Vj"></path>
        <path
            d="M420 180C414.48 180 410 184.48 410 190C410 195.52 414.48 200 420 200C425.51 200 430 195.52 430 190C430 184.48 425.51 180 420 180Z"
            id="a12aK3BOZj"></path>
        <path
            d="M380 193.52C374.48 193.52 370 189.04 370 183.52C370 178 374.48 173.52 380 173.52C385.51 173.52 390 178 390 183.52C390 189.04 385.51 193.52 380 193.52Z"
            id="iKZnpENlr"></path>
        <path
            d="M548.43 147.67C542.91 147.67 538.43 143.19 538.43 137.67C538.43 132.15 542.91 127.67 548.43 127.67C553.94 127.67 558.43 132.15 558.43 137.67C558.43 143.19 553.94 147.67 548.43 147.67Z"
            id="kbqEU1wEO"></path>
        <path
            d="M503.3 190C497.78 190 493.31 185.52 493.31 180C493.31 174.48 497.78 170 503.3 170C508.82 170 513.31 174.48 513.31 180C513.31 185.52 508.82 190 503.3 190Z"
            id="bNFyTi5zM"></path>
        <path
            d="M396.22 230C390.71 230 386.23 225.52 386.23 220C386.23 214.48 390.71 210 396.22 210C401.74 210 406.23 214.48 406.23 220C406.23 225.52 401.74 230 396.22 230Z"
            id="k5Hy6j0eqm"></path>
        <path
            d="M364.06 274.45C358.55 274.45 354.07 269.97 354.07 264.45C354.07 258.93 358.55 254.45 364.06 254.45C369.58 254.45 374.07 258.93 374.07 264.45C374.07 269.97 369.58 274.45 364.06 274.45Z"
            id="b1budwcai6"></path>
        <path
            d="M391.69 173.6C386.17 173.6 381.69 169.12 381.69 163.61C381.69 158.08 386.17 153.6 391.69 153.6C397.21 153.6 401.69 158.08 401.69 163.61C401.69 169.12 397.21 173.6 391.69 173.6Z"
            id="d1uChDlgHy"></path>
        <path
            d="M480 140C474.48 140 470 135.52 470 130C470 124.48 474.48 120 480 120C485.51 120 490 124.48 490 130C490 135.52 485.51 140 480 140Z"
            id="a2JbgGRHSw"></path>
        <path
            d="M541.48 203.39C535.96 203.39 531.48 198.91 531.48 193.39C531.48 187.87 535.96 183.39 541.48 183.39C547 183.39 551.48 187.87 551.48 193.39C551.48 198.91 547 203.39 541.48 203.39Z"
            id="bjXSBFG0A"></path>
        <path
            d="M395.29 120C389.77 120 385.3 115.52 385.3 110C385.3 104.48 389.77 100 395.29 100C400.81 100 405.3 104.48 405.3 110C405.3 115.52 400.81 120 395.29 120Z"
            id="g4lfvsmhJH"></path>
        <path
            d="M530 254.79C524.48 254.79 520 250.31 520 244.79C520 239.27 524.48 234.79 530 234.79C535.51 234.79 540 239.27 540 244.79C540 250.31 535.51 254.79 530 254.79Z"
            id="b20UispsGP"></path>
        <path
            d="M480 237.5C474.48 237.5 470 233.02 470 227.5C470 221.98 474.48 217.5 480 217.5C485.51 217.5 490 221.98 490 227.5C490 233.02 485.51 237.5 480 237.5Z"
            id="a1x0rD2usL"></path>
        <path
            d="M556.86 116.48C551.34 116.48 546.86 112 546.86 106.49C546.86 100.96 551.34 96.48 556.86 96.48C562.38 96.48 566.86 100.96 566.86 106.49C566.86 112 562.38 116.48 556.86 116.48Z"
            id="ayWD2QIW9"></path>
        <path
            d="M458.09 152.92C452.57 152.92 448.09 148.44 448.09 142.93C448.09 137.4 452.57 132.92 458.09 132.92C463.61 132.92 468.09 137.4 468.09 142.93C468.09 148.44 463.61 152.92 458.09 152.92Z"
            id="afBp6h7M5"></path>
        <path
            d="M430 170C424.48 170 420 165.52 420 160C420 154.48 424.48 150 430 150C435.51 150 440 154.48 440 160C440 165.52 435.51 170 430 170Z"
            id="c1zrNoMV6i"></path>
        <path
            d="M480 80C474.48 80 470 75.52 470 70C470 64.48 474.48 60 480 60C485.51 60 490 64.48 490 70C490 75.52 485.51 80 480 80Z"
            id="bI4Q6zf55"></path>
        <path
            d="M420 80C414.48 80 410 75.52 410 70C410 64.48 414.48 60 420 60C425.51 60 430 64.48 430 70C430 75.52 425.51 80 420 80Z"
            id="a1iF4YlS5H"></path>
        <path
            d="M440 100C434.48 100 430 95.52 430 90C430 84.48 434.48 80 440 80C445.51 80 450 84.48 450 90C450 95.52 445.51 100 440 100Z"
            id="aKudMbSgj"></path>
        <path
            d="M465.63 174.36C460.11 174.36 455.64 169.88 455.64 164.37C455.64 158.84 460.11 154.36 465.63 154.36C471.15 154.36 475.64 158.84 475.64 164.37C475.64 169.88 471.15 174.36 465.63 174.36Z"
            id="a5JArgEw8F"></path>
        <path
            d="M360 60C354.48 60 350 64.48 350 70C350 75.52 354.48 80 360 80C365.51 80 370 75.52 370 70C370 64.48 365.51 60 360 60Z"
            id="c1qsdyJHtt"></path>
    </defs>
    <g>
        <g>
            <g>
                <use xlink:href="#b2XDdTap0U" opacity="1" fill="#333333" fill-opacity="1"></use>
                <g>
                    <use xlink:href="#b2XDdTap0U" opacity="1" fill-opacity="0" stroke="#000000" stroke-width="1"
                        stroke-opacity="0"></use>
                </g>
            </g>
            <g>
                <use xlink:href="#d1c7jCuLmy" opacity="1" fill="#f47992" fill-opacity="1"></use>
                <g>
                    <use xlink:href="#d1c7jCuLmy" opacity="1" fill-opacity="0" stroke="#000000" stroke-width="1"
                        stroke-opacity="0"></use>
                </g>
            </g>
            <g>
                <use xlink:href="#e40bbz9Vj" opacity="1" fill="#f47992" fill-opacity="1"></use>
                <g>
                    <use xlink:href="#e40bbz9Vj" opacity="1" fill-opacity="0" stroke="#000000" stroke-width="1"
                        stroke-opacity="0"></use>
                </g>
            </g>
            <g>
                <use xlink:href="#a12aK3BOZj" opacity="1" fill="#f47992" fill-opacity="1"></use>
                <g>
                    <use xlink:href="#a12aK3BOZj" opacity="1" fill-opacity="0" stroke="#000000" stroke-width="1"
                        stroke-opacity="0"></use>
                </g>
            </g>
            <g>
                <use xlink:href="#iKZnpENlr" opacity="1" fill="#f47992" fill-opacity="1"></use>
                <g>
                    <use xlink:href="#iKZnpENlr" opacity="1" fill-opacity="0" stroke="#000000" stroke-width="1"
                        stroke-opacity="0"></use>
                </g>
            </g>
            <g>
                <use xlink:href="#kbqEU1wEO" opacity="1" fill="#f47992" fill-opacity="1"></use>
                <g>
                    <use xlink:href="#kbqEU1wEO" opacity="1" fill-opacity="0" stroke="#000000" stroke-width="1"
                        stroke-opacity="0"></use>
                </g>
            </g>
            <g>
                <use xlink:href="#bNFyTi5zM" opacity="1" fill="#f47992" fill-opacity="1"></use>
                <g>
                    <use xlink:href="#bNFyTi5zM" opacity="1" fill-opacity="0" stroke="#000000" stroke-width="1"
                        stroke-opacity="0"></use>
                </g>
            </g>
            <g>
                <use xlink:href="#k5Hy6j0eqm" opacity="1" fill="#f47992" fill-opacity="1"></use>
                <g>
                    <use xlink:href="#k5Hy6j0eqm" opacity="1" fill-opacity="0" stroke="#000000" stroke-width="1"
                        stroke-opacity="0"></use>
                </g>
            </g>
            <g>
                <use xlink:href="#b1budwcai6" opacity="1" fill="#f47992" fill-opacity="1"></use>
                <g>
                    <use xlink:href="#b1budwcai6" opacity="1" fill-opacity="0" stroke="#000000" stroke-width="1"
                        stroke-opacity="0"></use>
                </g>
            </g>
            <g>
                <use xlink:href="#d1uChDlgHy" opacity="1" fill="#f47992" fill-opacity="1"></use>
                <g>
                    <use xlink:href="#d1uChDlgHy" opacity="1" fill-opacity="0" stroke="#000000" stroke-width="1"
                        stroke-opacity="0"></use>
                </g>
            </g>
            <g>
                <use xlink:href="#a2JbgGRHSw" opacity="1" fill="#f47992" fill-opacity="1"></use>
                <g>
                    <use xlink:href="#a2JbgGRHSw" opacity="1" fill-opacity="0" stroke="#000000" stroke-width="1"
                        stroke-opacity="0"></use>
                </g>
            </g>
            <g>
                <use xlink:href="#bjXSBFG0A" opacity="1" fill="#f47992" fill-opacity="1"></use>
                <g>
                    <use xlink:href="#bjXSBFG0A" opacity="1" fill-opacity="0" stroke="#000000" stroke-width="1"
                        stroke-opacity="0"></use>
                </g>
            </g>
            <g>
                <use xlink:href="#g4lfvsmhJH" opacity="1" fill="#f47992" fill-opacity="1"></use>
                <g>
                    <use xlink:href="#g4lfvsmhJH" opacity="1" fill-opacity="0" stroke="#000000" stroke-width="1"
                        stroke-opacity="0"></use>
                </g>
            </g>
            <g>
                <use xlink:href="#b20UispsGP" opacity="1" fill="#f47992" fill-opacity="1"></use>
                <g>
                    <use xlink:href="#b20UispsGP" opacity="1" fill-opacity="0" stroke="#000000" stroke-width="1"
                        stroke-opacity="0"></use>
                </g>
            </g>
            <g>
                <use xlink:href="#a1x0rD2usL" opacity="1" fill="#f47992" fill-opacity="1"></use>
                <g>
                    <use xlink:href="#a1x0rD2usL" opacity="1" fill-opacity="0" stroke="#000000" stroke-width="1"
                        stroke-opacity="0"></use>
                </g>
            </g>
            <g>
                <use xlink:href="#ayWD2QIW9" opacity="1" fill="#f47992" fill-opacity="1"></use>
                <g>
                    <use xlink:href="#ayWD2QIW9" opacity="1" fill-opacity="0" stroke="#000000" stroke-width="1"
                        stroke-opacity="0"></use>
                </g>
            </g>
            <g>
                <use xlink:href="#afBp6h7M5" opacity="1" fill="#f47992" fill-opacity="1"></use>
                <g>
                    <use xlink:href="#afBp6h7M5" opacity="1" fill-opacity="0" stroke="#000000" stroke-width="1"
                        stroke-opacity="0"></use>
                </g>
            </g>
            <g>
                <use xlink:href="#c1zrNoMV6i" opacity="1" fill="#f47992" fill-opacity="1"></use>
                <g>
                    <use xlink:href="#c1zrNoMV6i" opacity="1" fill-opacity="0" stroke="#000000" stroke-width="1"
                        stroke-opacity="0"></use>
                </g>
            </g>
            <g>
                <use xlink:href="#bI4Q6zf55" opacity="1" fill="#f47992" fill-opacity="1"></use>
                <g>
                    <use xlink:href="#bI4Q6zf55" opacity="1" fill-opacity="0" stroke="#000000" stroke-width="1"
                        stroke-opacity="0"></use>
                </g>
            </g>
            <g>
                <use xlink:href="#a1iF4YlS5H" opacity="1" fill="#f47992" fill-opacity="1"></use>
                <g>
                    <use xlink:href="#a1iF4YlS5H" opacity="1" fill-opacity="0" stroke="#000000" stroke-width="1"
                        stroke-opacity="0"></use>
                </g>
            </g>
            <g>
                <use xlink:href="#aKudMbSgj" opacity="1" fill="#f47992" fill-opacity="1"></use>
                <g>
                    <use xlink:href="#aKudMbSgj" opacity="1" fill-opacity="0" stroke="#000000" stroke-width="1"
                        stroke-opacity="0"></use>
                </g>
            </g>
            <g>
                <use xlink:href="#a5JArgEw8F" opacity="1" fill="#f47992" fill-opacity="1"></use>
                <g>
                    <use xlink:href="#a5JArgEw8F" opacity="1" fill-opacity="0" stroke="#000000" stroke-width="1"
                        stroke-opacity="0"></use>
                </g>
            </g>
            <g>
                <use xlink:href="#c1qsdyJHtt" opacity="1" fill="#f47992" fill-opacity="1"></use>
                <g>
                    <use xlink:href="#c1qsdyJHtt" opacity="1" fill-opacity="0" stroke="#000000" stroke-width="1"
                        stroke-opacity="0"></use>
                </g>
            </g>
        </g>
    </g>
</svg>