<?xml version="1.0" encoding="UTF-8" standalone="no"?>
<!DOCTYPE svg PUBLIC "-//W3C//DTD SVG 1.1//EN" "http://www.w3.org/Graphics/SVG/1.1/DTD/svg11.dtd">
<svg version="1.1" xmlns="http://www.w3.org/2000/svg" xmlns:xlink="http://www.w3.org/1999/xlink"
    preserveAspectRatio="xMidYMid meet" viewBox="340 50 162 162" width="20" height="20">
    <defs>
        <path d="M502.16 50L502.16 212.16L340 212.16L340 50L502.16 50Z" id="aKacUqaoV"></path>
        <path
            d="M480 200C474.48 200 470 195.52 470 190C470 184.48 474.48 180 480 180C485.51 180 490 184.48 490 190C490 195.52 485.51 200 480 200Z"
            id="a5kSWmwZln"></path>
        <path
            d="M450 200C444.48 200 440 195.52 440 190C440 184.48 444.48 180 450 180C455.51 180 460 184.48 460 190C460 195.52 455.51 200 450 200Z"
            id="a19rCqyzwI"></path>
        <path
            d="M420 180C414.48 180 410 184.48 410 190C410 195.52 414.48 200 420 200C425.51 200 430 195.52 430 190C430 184.48 425.51 180 420 180Z"
            id="a12aK3BOZj"></path>
        <path
            d="M390 200C384.48 200 380 195.52 380 190C380 184.48 384.48 180 390 180C395.51 180 400 184.48 400 190C400 195.52 395.51 200 390 200Z"
            id="eUYW9fZLo"></path>
        <path
            d="M360 200C354.48 200 350 195.52 350 190C350 184.48 354.48 180 360 180C365.51 180 370 184.48 370 190C370 195.52 365.51 200 360 200Z"
            id="f1xEbmJn9r"></path>
        <path
            d="M480 170C474.48 170 470 165.52 470 160C470 154.48 474.48 150 480 150C485.51 150 490 154.48 490 160C490 165.52 485.51 170 480 170Z"
            id="c5fSSz6iEP"></path>
        <path
            d="M450 170C444.48 170 440 165.52 440 160C440 154.48 444.48 150 450 150C455.51 150 460 154.48 460 160C460 165.52 455.51 170 450 170Z"
            id="d24amIbv0N"></path>
        <path
            d="M420 170C414.48 170 410 165.52 410 160C410 154.48 414.48 150 420 150C425.51 150 430 154.48 430 160C430 165.52 425.51 170 420 170Z"
            id="e1wdDGJSog"></path>
        <path
            d="M390 170C384.48 170 380 165.52 380 160C380 154.48 384.48 150 390 150C395.51 150 400 154.48 400 160C400 165.52 395.51 170 390 170Z"
            id="b2nXlHbmt"></path>
        <path
            d="M360 170C354.48 170 350 165.52 350 160C350 154.48 354.48 150 360 150C365.51 150 370 154.48 370 160C370 165.52 365.51 170 360 170Z"
            id="b3beWTEATL"></path>
        <path
            d="M480 140C474.48 140 470 135.52 470 130C470 124.48 474.48 120 480 120C485.51 120 490 124.48 490 130C490 135.52 485.51 140 480 140Z"
            id="a2JbgGRHSw"></path>
        <path
            d="M450 140C444.48 140 440 135.52 440 130C440 124.48 444.48 120 450 120C455.51 120 460 124.48 460 130C460 135.52 455.51 140 450 140Z"
            id="c7ZlDyNMm"></path>
        <path
            d="M420 140C414.48 140 410 135.52 410 130C410 124.48 414.48 120 420 120C425.51 120 430 124.48 430 130C430 135.52 425.51 140 420 140Z"
            id="f3d6Lnen53"></path>
        <path
            d="M390 140C384.48 140 380 135.52 380 130C380 124.48 384.48 120 390 120C395.51 120 400 124.48 400 130C400 135.52 395.51 140 390 140Z"
            id="cvYiiSa3t"></path>
        <path
            d="M360 140C354.48 140 350 135.52 350 130C350 124.48 354.48 120 360 120C365.51 120 370 124.48 370 130C370 135.52 365.51 140 360 140Z"
            id="bnYjTXyry"></path>
        <path
            d="M480 110C474.48 110 470 105.52 470 100C470 94.48 474.48 90 480 90C485.51 90 490 94.48 490 100C490 105.52 485.51 110 480 110Z"
            id="i659i3pPNM"></path>
        <path
            d="M450 110C444.48 110 440 105.52 440 100C440 94.48 444.48 90 450 90C455.51 90 460 94.48 460 100C460 105.52 455.51 110 450 110Z"
            id="cvRmQz0rQ"></path>
        <path
            d="M420 110C414.48 110 410 105.52 410 100C410 94.48 414.48 90 420 90C425.51 90 430 94.48 430 100C430 105.52 425.51 110 420 110Z"
            id="e1q9oA7UFW"></path>
        <path
            d="M390 110C384.48 110 380 105.52 380 100C380 94.48 384.48 90 390 90C395.51 90 400 94.48 400 100C400 105.52 395.51 110 390 110Z"
            id="e5cRXcNvZM"></path>
        <path
            d="M360 110C354.48 110 350 105.52 350 100C350 94.48 354.48 90 360 90C365.51 90 370 94.48 370 100C370 105.52 365.51 110 360 110Z"
            id="b1gQnifVWc"></path>
        <path
            d="M480 80C474.48 80 470 75.52 470 70C470 64.48 474.48 60 480 60C485.51 60 490 64.48 490 70C490 75.52 485.51 80 480 80Z"
            id="bI4Q6zf55"></path>
        <path
            d="M450 80C444.48 80 440 75.52 440 70C440 64.48 444.48 60 450 60C455.51 60 460 64.48 460 70C460 75.52 455.51 80 450 80Z"
            id="c7kwKYYlW"></path>
        <path
            d="M420 80C414.48 80 410 75.52 410 70C410 64.48 414.48 60 420 60C425.51 60 430 64.48 430 70C430 75.52 425.51 80 420 80Z"
            id="a1iF4YlS5H"></path>
        <path
            d="M390 80C384.48 80 380 75.52 380 70C380 64.48 384.48 60 390 60C395.51 60 400 64.48 400 70C400 75.52 395.51 80 390 80Z"
            id="c1CkRb08t8"></path>
        <path
            d="M360 60C354.48 60 350 64.48 350 70C350 75.52 354.48 80 360 80C365.51 80 370 75.52 370 70C370 64.48 365.51 60 360 60Z"
            id="c1qsdyJHtt"></path>
    </defs>
    <g>
        <g>
            <g>
                <use xlink:href="#aKacUqaoV" opacity="1" fill="#333333" fill-opacity="1"></use>
                <g>
                    <use xlink:href="#aKacUqaoV" opacity="1" fill-opacity="0" stroke="#000000" stroke-width="1"
                        stroke-opacity="0"></use>
                </g>
            </g>
            <g>
                <use xlink:href="#a5kSWmwZln" opacity="1" fill="#f47992" fill-opacity="1"></use>
                <g>
                    <use xlink:href="#a5kSWmwZln" opacity="1" fill-opacity="0" stroke="#000000" stroke-width="1"
                        stroke-opacity="0"></use>
                </g>
            </g>
            <g>
                <use xlink:href="#a19rCqyzwI" opacity="1" fill="#f47992" fill-opacity="1"></use>
                <g>
                    <use xlink:href="#a19rCqyzwI" opacity="1" fill-opacity="0" stroke="#000000" stroke-width="1"
                        stroke-opacity="0"></use>
                </g>
            </g>
            <g>
                <use xlink:href="#a12aK3BOZj" opacity="1" fill="#f47992" fill-opacity="1"></use>
                <g>
                    <use xlink:href="#a12aK3BOZj" opacity="1" fill-opacity="0" stroke="#000000" stroke-width="1"
                        stroke-opacity="0"></use>
                </g>
            </g>
            <g>
                <use xlink:href="#eUYW9fZLo" opacity="1" fill="#f47992" fill-opacity="1"></use>
                <g>
                    <use xlink:href="#eUYW9fZLo" opacity="1" fill-opacity="0" stroke="#000000" stroke-width="1"
                        stroke-opacity="0"></use>
                </g>
            </g>
            <g>
                <use xlink:href="#f1xEbmJn9r" opacity="1" fill="#f47992" fill-opacity="1"></use>
                <g>
                    <use xlink:href="#f1xEbmJn9r" opacity="1" fill-opacity="0" stroke="#000000" stroke-width="1"
                        stroke-opacity="0"></use>
                </g>
            </g>
            <g>
                <use xlink:href="#c5fSSz6iEP" opacity="1" fill="#f47992" fill-opacity="1"></use>
                <g>
                    <use xlink:href="#c5fSSz6iEP" opacity="1" fill-opacity="0" stroke="#000000" stroke-width="1"
                        stroke-opacity="0"></use>
                </g>
            </g>
            <g>
                <use xlink:href="#d24amIbv0N" opacity="1" fill="#f47992" fill-opacity="1"></use>
                <g>
                    <use xlink:href="#d24amIbv0N" opacity="1" fill-opacity="0" stroke="#000000" stroke-width="1"
                        stroke-opacity="0"></use>
                </g>
            </g>
            <g>
                <use xlink:href="#e1wdDGJSog" opacity="1" fill="#f47992" fill-opacity="1"></use>
                <g>
                    <use xlink:href="#e1wdDGJSog" opacity="1" fill-opacity="0" stroke="#000000" stroke-width="1"
                        stroke-opacity="0"></use>
                </g>
            </g>
            <g>
                <use xlink:href="#b2nXlHbmt" opacity="1" fill="#f47992" fill-opacity="1"></use>
                <g>
                    <use xlink:href="#b2nXlHbmt" opacity="1" fill-opacity="0" stroke="#000000" stroke-width="1"
                        stroke-opacity="0"></use>
                </g>
            </g>
            <g>
                <use xlink:href="#b3beWTEATL" opacity="1" fill="#f47992" fill-opacity="1"></use>
                <g>
                    <use xlink:href="#b3beWTEATL" opacity="1" fill-opacity="0" stroke="#000000" stroke-width="1"
                        stroke-opacity="0"></use>
                </g>
            </g>
            <g>
                <use xlink:href="#a2JbgGRHSw" opacity="1" fill="#f47992" fill-opacity="1"></use>
                <g>
                    <use xlink:href="#a2JbgGRHSw" opacity="1" fill-opacity="0" stroke="#000000" stroke-width="1"
                        stroke-opacity="0"></use>
                </g>
            </g>
            <g>
                <use xlink:href="#c7ZlDyNMm" opacity="1" fill="#f47992" fill-opacity="1"></use>
                <g>
                    <use xlink:href="#c7ZlDyNMm" opacity="1" fill-opacity="0" stroke="#000000" stroke-width="1"
                        stroke-opacity="0"></use>
                </g>
            </g>
            <g>
                <use xlink:href="#f3d6Lnen53" opacity="1" fill="#f47992" fill-opacity="1"></use>
                <g>
                    <use xlink:href="#f3d6Lnen53" opacity="1" fill-opacity="0" stroke="#000000" stroke-width="1"
                        stroke-opacity="0"></use>
                </g>
            </g>
            <g>
                <use xlink:href="#cvYiiSa3t" opacity="1" fill="#f47992" fill-opacity="1"></use>
                <g>
                    <use xlink:href="#cvYiiSa3t" opacity="1" fill-opacity="0" stroke="#000000" stroke-width="1"
                        stroke-opacity="0"></use>
                </g>
            </g>
            <g>
                <use xlink:href="#bnYjTXyry" opacity="1" fill="#f47992" fill-opacity="1"></use>
                <g>
                    <use xlink:href="#bnYjTXyry" opacity="1" fill-opacity="0" stroke="#000000" stroke-width="1"
                        stroke-opacity="0"></use>
                </g>
            </g>
            <g>
                <use xlink:href="#i659i3pPNM" opacity="1" fill="#f47992" fill-opacity="1"></use>
                <g>
                    <use xlink:href="#i659i3pPNM" opacity="1" fill-opacity="0" stroke="#000000" stroke-width="1"
                        stroke-opacity="0"></use>
                </g>
            </g>
            <g>
                <use xlink:href="#cvRmQz0rQ" opacity="1" fill="#f47992" fill-opacity="1"></use>
                <g>
                    <use xlink:href="#cvRmQz0rQ" opacity="1" fill-opacity="0" stroke="#000000" stroke-width="1"
                        stroke-opacity="0"></use>
                </g>
            </g>
            <g>
                <use xlink:href="#e1q9oA7UFW" opacity="1" fill="#f47992" fill-opacity="1"></use>
                <g>
                    <use xlink:href="#e1q9oA7UFW" opacity="1" fill-opacity="0" stroke="#000000" stroke-width="1"
                        stroke-opacity="0"></use>
                </g>
            </g>
            <g>
                <use xlink:href="#e5cRXcNvZM" opacity="1" fill="#f47992" fill-opacity="1"></use>
                <g>
                    <use xlink:href="#e5cRXcNvZM" opacity="1" fill-opacity="0" stroke="#000000" stroke-width="1"
                        stroke-opacity="0"></use>
                </g>
            </g>
            <g>
                <use xlink:href="#b1gQnifVWc" opacity="1" fill="#f47992" fill-opacity="1"></use>
                <g>
                    <use xlink:href="#b1gQnifVWc" opacity="1" fill-opacity="0" stroke="#000000" stroke-width="1"
                        stroke-opacity="0"></use>
                </g>
            </g>
            <g>
                <use xlink:href="#bI4Q6zf55" opacity="1" fill="#f47992" fill-opacity="1"></use>
                <g>
                    <use xlink:href="#bI4Q6zf55" opacity="1" fill-opacity="0" stroke="#000000" stroke-width="1"
                        stroke-opacity="0"></use>
                </g>
            </g>
            <g>
                <use xlink:href="#c7kwKYYlW" opacity="1" fill="#f47992" fill-opacity="1"></use>
                <g>
                    <use xlink:href="#c7kwKYYlW" opacity="1" fill-opacity="0" stroke="#000000" stroke-width="1"
                        stroke-opacity="0"></use>
                </g>
            </g>
            <g>
                <use xlink:href="#a1iF4YlS5H" opacity="1" fill="#f47992" fill-opacity="1"></use>
                <g>
                    <use xlink:href="#a1iF4YlS5H" opacity="1" fill-opacity="0" stroke="#000000" stroke-width="1"
                        stroke-opacity="0"></use>
                </g>
            </g>
            <g>
                <use xlink:href="#c1CkRb08t8" opacity="1" fill="#f47992" fill-opacity="1"></use>
                <g>
                    <use xlink:href="#c1CkRb08t8" opacity="1" fill-opacity="0" stroke="#000000" stroke-width="1"
                        stroke-opacity="0"></use>
                </g>
            </g>
            <g>
                <use xlink:href="#c1qsdyJHtt" opacity="1" fill="#f47992" fill-opacity="1"></use>
                <g>
                    <use xlink:href="#c1qsdyJHtt" opacity="1" fill-opacity="0" stroke="#000000" stroke-width="1"
                        stroke-opacity="0"></use>
                </g>
            </g>
        </g>
    </g>
</svg>